<mxfile host="app.diagrams.net" modified="2021-10-18T17:15:21.097Z" agent="5.0 (Windows NT 10.0; WOW64) AppleWebKit/537.36 (KHTML, like Gecko) Chrome/94.0.4606.81 Safari/537.36" etag="tlZw0h2-I-TlUeRVk9ML" version="15.5.5" type="github">
  <diagram name="Page-1" id="13e1069c-82ec-6db2-03f1-153e76fe0fe0">
    <mxGraphModel dx="813" dy="1304" grid="1" gridSize="10" guides="1" tooltips="1" connect="1" arrows="1" fold="1" page="1" pageScale="1" pageWidth="1100" pageHeight="850" background="none" math="0" shadow="0">
      <root>
        <mxCell id="0" />
        <mxCell id="1" parent="0" />
        <mxCell id="wc8MHf9N2YYuKddE2Fxc-17" value="alt" style="shape=umlFrame;whiteSpace=wrap;html=1;" parent="1" vertex="1">
          <mxGeometry x="140" y="130" width="410" height="260" as="geometry" />
        </mxCell>
        <mxCell id="wc8MHf9N2YYuKddE2Fxc-1" value="&lt;u&gt;f: Felhasználói adatkezelő&lt;/u&gt;" style="shape=umlLifeline;perimeter=lifelinePerimeter;whiteSpace=wrap;html=1;container=1;collapsible=0;recursiveResize=0;outlineConnect=0;" parent="1" vertex="1">
          <mxGeometry x="235" y="-10" width="100" height="460" as="geometry" />
        </mxCell>
        <mxCell id="wc8MHf9N2YYuKddE2Fxc-4" value="" style="html=1;points=[];perimeter=orthogonalPerimeter;" parent="wc8MHf9N2YYuKddE2Fxc-1" vertex="1">
          <mxGeometry x="45" y="60" width="10" height="370" as="geometry" />
        </mxCell>
        <mxCell id="wc8MHf9N2YYuKddE2Fxc-5" value="regisztráció(név, email, felhasználónév, jelszó)" style="html=1;verticalAlign=bottom;endArrow=block;entryX=0;entryY=0;rounded=0;" parent="wc8MHf9N2YYuKddE2Fxc-1" target="wc8MHf9N2YYuKddE2Fxc-4" edge="1">
          <mxGeometry x="-0.0435" relative="1" as="geometry">
            <mxPoint x="-185" y="60" as="sourcePoint" />
            <mxPoint as="offset" />
          </mxGeometry>
        </mxCell>
        <mxCell id="wc8MHf9N2YYuKddE2Fxc-11" value="" style="html=1;points=[];perimeter=orthogonalPerimeter;" parent="wc8MHf9N2YYuKddE2Fxc-1" vertex="1">
          <mxGeometry x="50" y="90" width="10" height="20" as="geometry" />
        </mxCell>
        <mxCell id="wc8MHf9N2YYuKddE2Fxc-12" value="Felhasználónév létezik(felhasználónév)" style="edgeStyle=orthogonalEdgeStyle;html=1;align=left;spacingLeft=2;endArrow=block;rounded=0;entryX=1;entryY=0;" parent="wc8MHf9N2YYuKddE2Fxc-1" edge="1">
          <mxGeometry x="0.1765" relative="1" as="geometry">
            <mxPoint x="55" y="60" as="sourcePoint" />
            <Array as="points">
              <mxPoint x="55" y="76" />
              <mxPoint x="85" y="76" />
              <mxPoint x="85" y="90" />
            </Array>
            <mxPoint as="offset" />
            <mxPoint x="60" y="90" as="targetPoint" />
          </mxGeometry>
        </mxCell>
        <mxCell id="wc8MHf9N2YYuKddE2Fxc-16" value="Eredmény" style="edgeStyle=orthogonalEdgeStyle;html=1;align=left;spacingLeft=2;endArrow=open;rounded=0;entryX=1;entryY=0.192;entryDx=0;entryDy=0;entryPerimeter=0;dashed=1;endFill=0;" parent="wc8MHf9N2YYuKddE2Fxc-1" edge="1">
          <mxGeometry x="-0.1" relative="1" as="geometry">
            <mxPoint x="55" y="110" as="sourcePoint" />
            <Array as="points">
              <mxPoint x="85" y="110" />
              <mxPoint x="85" y="130" />
            </Array>
            <mxPoint x="55" y="130.0400000000002" as="targetPoint" />
            <mxPoint as="offset" />
          </mxGeometry>
        </mxCell>
        <mxCell id="wc8MHf9N2YYuKddE2Fxc-38" value="" style="html=1;points=[];perimeter=orthogonalPerimeter;" parent="wc8MHf9N2YYuKddE2Fxc-1" vertex="1">
          <mxGeometry x="50" y="270" width="10" height="20" as="geometry" />
        </mxCell>
        <mxCell id="wc8MHf9N2YYuKddE2Fxc-39" value="" style="edgeStyle=orthogonalEdgeStyle;html=1;align=left;spacingLeft=2;endArrow=open;rounded=0;entryX=1;entryY=0.192;entryDx=0;entryDy=0;entryPerimeter=0;dashed=1;endFill=0;" parent="wc8MHf9N2YYuKddE2Fxc-1" edge="1">
          <mxGeometry relative="1" as="geometry">
            <mxPoint x="55" y="290" as="sourcePoint" />
            <Array as="points">
              <mxPoint x="85" y="290" />
              <mxPoint x="85" y="310" />
            </Array>
            <mxPoint x="55" y="310.0400000000002" as="targetPoint" />
          </mxGeometry>
        </mxCell>
        <mxCell id="wc8MHf9N2YYuKddE2Fxc-37" value="felhasználó mentése&lt;br&gt;(név, email, felhasználónév, jelszó)" style="edgeStyle=orthogonalEdgeStyle;html=1;align=left;spacingLeft=2;endArrow=block;rounded=0;entryX=1;entryY=0;" parent="wc8MHf9N2YYuKddE2Fxc-1" edge="1">
          <mxGeometry x="0.1133" relative="1" as="geometry">
            <mxPoint x="55" y="240" as="sourcePoint" />
            <Array as="points">
              <mxPoint x="55" y="249" />
              <mxPoint x="85" y="249" />
              <mxPoint x="85" y="273" />
            </Array>
            <mxPoint x="60" y="273" as="targetPoint" />
            <mxPoint as="offset" />
          </mxGeometry>
        </mxCell>
        <mxCell id="wc8MHf9N2YYuKddE2Fxc-32" value="Regisztráció elutasítása" style="html=1;verticalAlign=bottom;endArrow=open;dashed=1;endSize=8;rounded=0;" parent="wc8MHf9N2YYuKddE2Fxc-1" edge="1">
          <mxGeometry x="-0.1463" y="5" relative="1" as="geometry">
            <mxPoint x="-119" y="220.76" as="targetPoint" />
            <mxPoint x="45" y="220.76" as="sourcePoint" />
            <Array as="points">
              <mxPoint x="-105" y="220.76" />
            </Array>
            <mxPoint as="offset" />
          </mxGeometry>
        </mxCell>
        <mxCell id="wc8MHf9N2YYuKddE2Fxc-6" value="Authentikációs token" style="html=1;verticalAlign=bottom;endArrow=open;dashed=1;endSize=8;rounded=0;" parent="1" edge="1">
          <mxGeometry x="-0.1411" y="10" relative="1" as="geometry">
            <mxPoint x="117" y="371" as="targetPoint" />
            <mxPoint x="280" y="371" as="sourcePoint" />
            <Array as="points">
              <mxPoint x="220" y="371" />
              <mxPoint x="130" y="371" />
            </Array>
            <mxPoint as="offset" />
          </mxGeometry>
        </mxCell>
        <mxCell id="wc8MHf9N2YYuKddE2Fxc-19" value="" style="line;strokeWidth=1;fillColor=none;align=left;verticalAlign=middle;spacingTop=-1;spacingLeft=3;spacingRight=3;rotatable=0;labelPosition=right;points=[];portConstraint=eastwest;dashed=1;" parent="1" vertex="1">
          <mxGeometry x="140" y="220" width="410" height="8" as="geometry" />
        </mxCell>
        <mxCell id="wc8MHf9N2YYuKddE2Fxc-23" value="Felhasználónév létezik" style="text;html=1;strokeColor=none;fillColor=none;align=center;verticalAlign=middle;whiteSpace=wrap;rounded=0;dashed=1;" parent="1" vertex="1">
          <mxGeometry x="160" y="163" width="60" height="30" as="geometry" />
        </mxCell>
        <mxCell id="wc8MHf9N2YYuKddE2Fxc-26" value="&lt;u&gt;n: Napló&lt;br&gt;adatkezelő&lt;/u&gt;" style="shape=umlLifeline;perimeter=lifelinePerimeter;whiteSpace=wrap;html=1;container=1;collapsible=0;recursiveResize=0;outlineConnect=0;" parent="1" vertex="1">
          <mxGeometry x="470" y="-10" width="100" height="460" as="geometry" />
        </mxCell>
        <mxCell id="wc8MHf9N2YYuKddE2Fxc-27" value="" style="html=1;points=[];perimeter=orthogonalPerimeter;" parent="wc8MHf9N2YYuKddE2Fxc-26" vertex="1">
          <mxGeometry x="45" y="324" width="10" height="36" as="geometry" />
        </mxCell>
        <mxCell id="wc8MHf9N2YYuKddE2Fxc-42" value="" style="endArrow=open;endFill=0;html=1;edgeStyle=orthogonalEdgeStyle;align=left;verticalAlign=top;rounded=0;entryX=1.043;entryY=0.923;entryDx=0;entryDy=0;entryPerimeter=0;dashed=1;" parent="wc8MHf9N2YYuKddE2Fxc-26" edge="1">
          <mxGeometry x="-1" relative="1" as="geometry">
            <mxPoint x="45" y="361" as="sourcePoint" />
            <mxPoint x="-179.57000000000005" y="354.5100000000002" as="targetPoint" />
            <Array as="points">
              <mxPoint x="45" y="355" />
              <mxPoint x="-68" y="355" />
            </Array>
          </mxGeometry>
        </mxCell>
        <mxCell id="wc8MHf9N2YYuKddE2Fxc-36" value="Felhasználónév nem létezik" style="text;html=1;strokeColor=none;fillColor=none;align=center;verticalAlign=middle;whiteSpace=wrap;rounded=0;dashed=1;" parent="1" vertex="1">
          <mxGeometry x="155" y="230" width="65" height="30" as="geometry" />
        </mxCell>
        <mxCell id="wc8MHf9N2YYuKddE2Fxc-40" value="" style="endArrow=block;endFill=1;html=1;edgeStyle=orthogonalEdgeStyle;align=left;verticalAlign=top;rounded=0;entryX=0;entryY=0.034;entryDx=0;entryDy=0;entryPerimeter=0;" parent="1" edge="1">
          <mxGeometry x="-1" relative="1" as="geometry">
            <mxPoint x="290" y="316" as="sourcePoint" />
            <mxPoint x="515" y="315.7000000000003" as="targetPoint" />
            <Array as="points">
              <mxPoint x="515" y="316" />
            </Array>
          </mxGeometry>
        </mxCell>
        <mxCell id="wc8MHf9N2YYuKddE2Fxc-44" value="Naplózás" style="edgeLabel;html=1;align=center;verticalAlign=middle;resizable=0;points=[];" parent="wc8MHf9N2YYuKddE2Fxc-40" vertex="1" connectable="0">
          <mxGeometry x="0.3202" y="-1" relative="1" as="geometry">
            <mxPoint x="-28" y="-2" as="offset" />
          </mxGeometry>
        </mxCell>
      </root>
    </mxGraphModel>
  </diagram>
</mxfile>
